<svg xmlns="http://www.w3.org/2000/svg" viewBox="0 0 256 256">
  <g fill="#7AA7FF">
    <path transform="translate(128 128) scale(1.9) translate(-128 -106)" d="M128 44 L142 92 L190 106 L142 120 L128 168 L114 120 L66 106 L114 92 Z"/>
  </g>
  <g fill="#CFE0FF">
    <path transform="translate(68 72) scale(1.55) translate(-70 -96)" d="M70 66 L78 88 L100 96 L78 104 L70 126 L62 104 L40 96 L62 88 Z"/>
    <path transform="translate(190 190) scale(1.55) translate(-196 -174)" d="M196 150 L202 168 L220 174 L202 180 L196 198 L190 180 L172 174 L190 168 Z"/>
  </g>
</svg>
